<mxfile host="app.diagrams.net" modified="2023-11-13T14:01:03.221Z" agent="Mozilla/5.0 (Windows NT 10.0; Win64; x64) AppleWebKit/537.36 (KHTML, like Gecko) Chrome/119.0.0.0 Safari/537.36" etag="gGwk_44P5rihAD5aKpkj" version="22.1.0" type="device">
  <diagram id="C5RBs43oDa-KdzZeNtuy" name="Page-1">
    <mxGraphModel dx="3158" dy="2854" grid="1" gridSize="10" guides="1" tooltips="1" connect="1" arrows="1" fold="1" page="1" pageScale="1" pageWidth="827" pageHeight="1169" math="0" shadow="0">
      <root>
        <mxCell id="WIyWlLk6GJQsqaUBKTNV-0" />
        <mxCell id="WIyWlLk6GJQsqaUBKTNV-1" parent="WIyWlLk6GJQsqaUBKTNV-0" />
        <mxCell id="dXjQn9PTV2NmPbFtS_EN-2" style="edgeStyle=orthogonalEdgeStyle;rounded=0;orthogonalLoop=1;jettySize=auto;html=1;exitX=0.5;exitY=1;exitDx=0;exitDy=0;exitPerimeter=0;entryX=0.5;entryY=0;entryDx=0;entryDy=0;" edge="1" parent="WIyWlLk6GJQsqaUBKTNV-1" source="dXjQn9PTV2NmPbFtS_EN-0" target="dXjQn9PTV2NmPbFtS_EN-1">
          <mxGeometry relative="1" as="geometry" />
        </mxCell>
        <mxCell id="dXjQn9PTV2NmPbFtS_EN-0" value="Start" style="strokeWidth=2;html=1;shape=mxgraph.flowchart.start_2;whiteSpace=wrap;" vertex="1" parent="WIyWlLk6GJQsqaUBKTNV-1">
          <mxGeometry x="330" width="130" height="110" as="geometry" />
        </mxCell>
        <mxCell id="dXjQn9PTV2NmPbFtS_EN-1" value="Input:&lt;br&gt;n,m.&lt;br&gt;Initialize hi,mi;" style="shape=parallelogram;html=1;strokeWidth=2;perimeter=parallelogramPerimeter;whiteSpace=wrap;rounded=1;arcSize=12;size=0.23;" vertex="1" parent="WIyWlLk6GJQsqaUBKTNV-1">
          <mxGeometry x="317.5" y="150" width="155" height="90" as="geometry" />
        </mxCell>
        <mxCell id="dXjQn9PTV2NmPbFtS_EN-8" style="edgeStyle=orthogonalEdgeStyle;rounded=0;orthogonalLoop=1;jettySize=auto;html=1;exitX=0;exitY=0.5;exitDx=0;exitDy=0;exitPerimeter=0;entryX=0.5;entryY=0;entryDx=0;entryDy=0;" edge="1" parent="WIyWlLk6GJQsqaUBKTNV-1" source="dXjQn9PTV2NmPbFtS_EN-3" target="dXjQn9PTV2NmPbFtS_EN-6">
          <mxGeometry relative="1" as="geometry" />
        </mxCell>
        <mxCell id="dXjQn9PTV2NmPbFtS_EN-21" style="edgeStyle=orthogonalEdgeStyle;rounded=0;orthogonalLoop=1;jettySize=auto;html=1;exitX=1;exitY=0.5;exitDx=0;exitDy=0;exitPerimeter=0;entryX=0.5;entryY=0;entryDx=0;entryDy=0;" edge="1" parent="WIyWlLk6GJQsqaUBKTNV-1" source="dXjQn9PTV2NmPbFtS_EN-3" target="dXjQn9PTV2NmPbFtS_EN-20">
          <mxGeometry relative="1" as="geometry">
            <Array as="points">
              <mxPoint x="495" y="578" />
              <mxPoint x="495" y="770" />
              <mxPoint x="395" y="770" />
            </Array>
          </mxGeometry>
        </mxCell>
        <mxCell id="dXjQn9PTV2NmPbFtS_EN-3" value="if:&lt;br&gt;&amp;nbsp;h&amp;gt;0;m&amp;gt;0;" style="strokeWidth=2;html=1;shape=mxgraph.flowchart.decision;whiteSpace=wrap;" vertex="1" parent="WIyWlLk6GJQsqaUBKTNV-1">
          <mxGeometry x="314.5" y="518" width="160" height="120" as="geometry" />
        </mxCell>
        <mxCell id="dXjQn9PTV2NmPbFtS_EN-5" value="END" style="strokeWidth=2;html=1;shape=mxgraph.flowchart.terminator;whiteSpace=wrap;" vertex="1" parent="WIyWlLk6GJQsqaUBKTNV-1">
          <mxGeometry x="323" y="1370" width="181" height="100" as="geometry" />
        </mxCell>
        <mxCell id="dXjQn9PTV2NmPbFtS_EN-25" style="edgeStyle=orthogonalEdgeStyle;rounded=0;orthogonalLoop=1;jettySize=auto;html=1;exitX=0.5;exitY=1;exitDx=0;exitDy=0;entryX=0.5;entryY=0;entryDx=0;entryDy=0;" edge="1" parent="WIyWlLk6GJQsqaUBKTNV-1" source="dXjQn9PTV2NmPbFtS_EN-6" target="dXjQn9PTV2NmPbFtS_EN-20">
          <mxGeometry relative="1" as="geometry" />
        </mxCell>
        <mxCell id="dXjQn9PTV2NmPbFtS_EN-6" value="flag = false;" style="rounded=1;whiteSpace=wrap;html=1;absoluteArcSize=1;arcSize=14;strokeWidth=2;" vertex="1" parent="WIyWlLk6GJQsqaUBKTNV-1">
          <mxGeometry x="110" y="620" width="170" height="100" as="geometry" />
        </mxCell>
        <mxCell id="dXjQn9PTV2NmPbFtS_EN-11" value="true&amp;nbsp;" style="text;html=1;align=center;verticalAlign=middle;resizable=0;points=[];autosize=1;strokeColor=none;fillColor=none;" vertex="1" parent="WIyWlLk6GJQsqaUBKTNV-1">
          <mxGeometry x="230" y="546" width="50" height="30" as="geometry" />
        </mxCell>
        <mxCell id="dXjQn9PTV2NmPbFtS_EN-13" value="for:&lt;br&gt;i = 0; i&amp;lt;3;i++" style="strokeWidth=2;html=1;shape=mxgraph.flowchart.decision;whiteSpace=wrap;" vertex="1" parent="WIyWlLk6GJQsqaUBKTNV-1">
          <mxGeometry x="315" y="260" width="160" height="120" as="geometry" />
        </mxCell>
        <mxCell id="dXjQn9PTV2NmPbFtS_EN-14" style="edgeStyle=orthogonalEdgeStyle;rounded=0;orthogonalLoop=1;jettySize=auto;html=1;exitX=0.5;exitY=1;exitDx=0;exitDy=0;entryX=0.5;entryY=0;entryDx=0;entryDy=0;entryPerimeter=0;" edge="1" parent="WIyWlLk6GJQsqaUBKTNV-1" source="dXjQn9PTV2NmPbFtS_EN-1" target="dXjQn9PTV2NmPbFtS_EN-13">
          <mxGeometry relative="1" as="geometry" />
        </mxCell>
        <mxCell id="dXjQn9PTV2NmPbFtS_EN-17" style="edgeStyle=orthogonalEdgeStyle;rounded=0;orthogonalLoop=1;jettySize=auto;html=1;exitX=0.5;exitY=1;exitDx=0;exitDy=0;exitPerimeter=0;entryX=0.5;entryY=0;entryDx=0;entryDy=0;entryPerimeter=0;" edge="1" parent="WIyWlLk6GJQsqaUBKTNV-1" source="dXjQn9PTV2NmPbFtS_EN-18" target="dXjQn9PTV2NmPbFtS_EN-3">
          <mxGeometry relative="1" as="geometry" />
        </mxCell>
        <mxCell id="dXjQn9PTV2NmPbFtS_EN-19" value="" style="edgeStyle=orthogonalEdgeStyle;rounded=0;orthogonalLoop=1;jettySize=auto;html=1;exitX=0.5;exitY=1;exitDx=0;exitDy=0;exitPerimeter=0;entryX=0.5;entryY=0;entryDx=0;entryDy=0;entryPerimeter=0;" edge="1" parent="WIyWlLk6GJQsqaUBKTNV-1" source="dXjQn9PTV2NmPbFtS_EN-13" target="dXjQn9PTV2NmPbFtS_EN-18">
          <mxGeometry relative="1" as="geometry">
            <mxPoint x="395" y="380" as="sourcePoint" />
            <mxPoint x="395" y="518" as="targetPoint" />
          </mxGeometry>
        </mxCell>
        <mxCell id="dXjQn9PTV2NmPbFtS_EN-18" value="input:&lt;br&gt;hi;mi;" style="shape=parallelogram;html=1;strokeWidth=2;perimeter=parallelogramPerimeter;whiteSpace=wrap;rounded=1;arcSize=12;size=0.23;" vertex="1" parent="WIyWlLk6GJQsqaUBKTNV-1">
          <mxGeometry x="344.5" y="410" width="100" height="60" as="geometry" />
        </mxCell>
        <mxCell id="dXjQn9PTV2NmPbFtS_EN-20" value="&lt;div&gt;h -= hi;&amp;nbsp;&lt;/div&gt;&lt;div&gt;&amp;nbsp; &amp;nbsp; m -= mi;&lt;/div&gt;" style="rounded=1;whiteSpace=wrap;html=1;absoluteArcSize=1;arcSize=14;strokeWidth=2;" vertex="1" parent="WIyWlLk6GJQsqaUBKTNV-1">
          <mxGeometry x="345" y="820" width="100" height="100" as="geometry" />
        </mxCell>
        <mxCell id="dXjQn9PTV2NmPbFtS_EN-28" style="edgeStyle=orthogonalEdgeStyle;rounded=0;orthogonalLoop=1;jettySize=auto;html=1;exitX=0.5;exitY=1;exitDx=0;exitDy=0;entryX=0;entryY=0.5;entryDx=0;entryDy=0;entryPerimeter=0;" edge="1" parent="WIyWlLk6GJQsqaUBKTNV-1" source="dXjQn9PTV2NmPbFtS_EN-20" target="dXjQn9PTV2NmPbFtS_EN-13">
          <mxGeometry relative="1" as="geometry">
            <Array as="points">
              <mxPoint x="395" y="940" />
              <mxPoint x="90" y="940" />
              <mxPoint x="90" y="320" />
            </Array>
          </mxGeometry>
        </mxCell>
        <mxCell id="dXjQn9PTV2NmPbFtS_EN-29" value="if:&lt;br&gt;n&amp;gt;0 and m&amp;gt;0 and flag;" style="strokeWidth=2;html=1;shape=mxgraph.flowchart.decision;whiteSpace=wrap;" vertex="1" parent="WIyWlLk6GJQsqaUBKTNV-1">
          <mxGeometry x="347" y="1029" width="145" height="140" as="geometry" />
        </mxCell>
        <mxCell id="dXjQn9PTV2NmPbFtS_EN-30" style="edgeStyle=orthogonalEdgeStyle;rounded=0;orthogonalLoop=1;jettySize=auto;html=1;exitX=1;exitY=0.5;exitDx=0;exitDy=0;exitPerimeter=0;entryX=0.5;entryY=0;entryDx=0;entryDy=0;entryPerimeter=0;" edge="1" parent="WIyWlLk6GJQsqaUBKTNV-1" source="dXjQn9PTV2NmPbFtS_EN-13" target="dXjQn9PTV2NmPbFtS_EN-29">
          <mxGeometry relative="1" as="geometry">
            <Array as="points">
              <mxPoint x="670" y="320" />
              <mxPoint x="670" y="1010" />
            </Array>
          </mxGeometry>
        </mxCell>
        <mxCell id="dXjQn9PTV2NmPbFtS_EN-31" value="Output;&lt;br&gt;&#39;&#39;Yes&#39;&#39;" style="shape=parallelogram;html=1;strokeWidth=2;perimeter=parallelogramPerimeter;whiteSpace=wrap;rounded=1;arcSize=12;size=0.23;" vertex="1" parent="WIyWlLk6GJQsqaUBKTNV-1">
          <mxGeometry x="50" y="1150" width="180" height="120" as="geometry" />
        </mxCell>
        <mxCell id="dXjQn9PTV2NmPbFtS_EN-35" style="edgeStyle=orthogonalEdgeStyle;rounded=0;orthogonalLoop=1;jettySize=auto;html=1;exitX=0.5;exitY=1;exitDx=0;exitDy=0;" edge="1" parent="WIyWlLk6GJQsqaUBKTNV-1" source="dXjQn9PTV2NmPbFtS_EN-32">
          <mxGeometry relative="1" as="geometry">
            <mxPoint x="420" y="1370" as="targetPoint" />
            <Array as="points">
              <mxPoint x="670" y="1270" />
              <mxPoint x="420" y="1270" />
            </Array>
          </mxGeometry>
        </mxCell>
        <mxCell id="dXjQn9PTV2NmPbFtS_EN-32" value="Output;&lt;br style=&quot;border-color: var(--border-color);&quot;&gt;&#39;&#39;No&#39;&#39;" style="shape=parallelogram;html=1;strokeWidth=2;perimeter=parallelogramPerimeter;whiteSpace=wrap;rounded=1;arcSize=12;size=0.23;" vertex="1" parent="WIyWlLk6GJQsqaUBKTNV-1">
          <mxGeometry x="570" y="1150" width="200" height="100" as="geometry" />
        </mxCell>
        <mxCell id="dXjQn9PTV2NmPbFtS_EN-34" style="edgeStyle=orthogonalEdgeStyle;rounded=0;orthogonalLoop=1;jettySize=auto;html=1;exitX=0.5;exitY=1;exitDx=0;exitDy=0;entryX=0.583;entryY=-0.001;entryDx=0;entryDy=0;entryPerimeter=0;" edge="1" parent="WIyWlLk6GJQsqaUBKTNV-1">
          <mxGeometry relative="1" as="geometry">
            <mxPoint x="130" y="1270.1" as="sourcePoint" />
            <mxPoint x="418.52300000000014" y="1370" as="targetPoint" />
          </mxGeometry>
        </mxCell>
        <mxCell id="dXjQn9PTV2NmPbFtS_EN-36" style="edgeStyle=orthogonalEdgeStyle;rounded=0;orthogonalLoop=1;jettySize=auto;html=1;exitX=0;exitY=0.5;exitDx=0;exitDy=0;exitPerimeter=0;entryX=0.58;entryY=0.006;entryDx=0;entryDy=0;entryPerimeter=0;" edge="1" parent="WIyWlLk6GJQsqaUBKTNV-1" source="dXjQn9PTV2NmPbFtS_EN-29" target="dXjQn9PTV2NmPbFtS_EN-31">
          <mxGeometry relative="1" as="geometry" />
        </mxCell>
        <mxCell id="dXjQn9PTV2NmPbFtS_EN-37" style="edgeStyle=orthogonalEdgeStyle;rounded=0;orthogonalLoop=1;jettySize=auto;html=1;exitX=1;exitY=0.5;exitDx=0;exitDy=0;exitPerimeter=0;entryX=0.642;entryY=-0.001;entryDx=0;entryDy=0;entryPerimeter=0;" edge="1" parent="WIyWlLk6GJQsqaUBKTNV-1" source="dXjQn9PTV2NmPbFtS_EN-29" target="dXjQn9PTV2NmPbFtS_EN-32">
          <mxGeometry relative="1" as="geometry" />
        </mxCell>
        <mxCell id="dXjQn9PTV2NmPbFtS_EN-38" value="true" style="text;html=1;align=center;verticalAlign=middle;resizable=0;points=[];autosize=1;strokeColor=none;fillColor=none;" vertex="1" parent="WIyWlLk6GJQsqaUBKTNV-1">
          <mxGeometry x="230" y="1068" width="40" height="30" as="geometry" />
        </mxCell>
        <mxCell id="dXjQn9PTV2NmPbFtS_EN-39" value="false" style="text;html=1;align=center;verticalAlign=middle;resizable=0;points=[];autosize=1;strokeColor=none;fillColor=none;" vertex="1" parent="WIyWlLk6GJQsqaUBKTNV-1">
          <mxGeometry x="575" y="1068" width="50" height="30" as="geometry" />
        </mxCell>
      </root>
    </mxGraphModel>
  </diagram>
</mxfile>
